<mxfile host="Electron" agent="Mozilla/5.0 (Windows NT 10.0; Win64; x64) AppleWebKit/537.36 (KHTML, like Gecko) draw.io/28.0.6 Chrome/138.0.7204.100 Electron/37.2.3 Safari/537.36" version="28.0.6">
  <diagram name="Strona-1" id="EEeny_DUj2alVPuR7iQV">
    <mxGraphModel dx="1826" dy="841" grid="1" gridSize="10" guides="1" tooltips="1" connect="1" arrows="1" fold="1" page="0" pageScale="1" pageWidth="827" pageHeight="1169" math="0" shadow="0">
      <root>
        <mxCell id="0" />
        <mxCell id="1" parent="0" />
        <mxCell id="K0FyJU6ovmfU7ALh6ZUN-1" value="&lt;font style=&quot;font-size: 18px;&quot;&gt;gold.dim_customers&lt;/font&gt;" style="shape=table;startSize=40;container=1;collapsible=1;childLayout=tableLayout;fixedRows=1;rowLines=0;fontStyle=1;align=center;resizeLast=1;html=1;rounded=1;fillColor=#fff2cc;strokeColor=#d6b656;" vertex="1" parent="1">
          <mxGeometry x="-90" y="241" width="250" height="440" as="geometry" />
        </mxCell>
        <mxCell id="K0FyJU6ovmfU7ALh6ZUN-2" value="" style="shape=tableRow;horizontal=0;startSize=0;swimlaneHead=0;swimlaneBody=0;fillColor=none;collapsible=0;dropTarget=0;points=[[0,0.5],[1,0.5]];portConstraint=eastwest;top=0;left=0;right=0;bottom=1;rounded=1;fontStyle=1;fontSize=16;" vertex="1" parent="K0FyJU6ovmfU7ALh6ZUN-1">
          <mxGeometry y="40" width="250" height="39" as="geometry" />
        </mxCell>
        <mxCell id="K0FyJU6ovmfU7ALh6ZUN-3" value="PK" style="shape=partialRectangle;connectable=0;fillColor=none;top=0;left=0;bottom=0;right=0;fontStyle=1;overflow=hidden;whiteSpace=wrap;html=1;rounded=1;fontSize=16;" vertex="1" parent="K0FyJU6ovmfU7ALh6ZUN-2">
          <mxGeometry width="30" height="39" as="geometry">
            <mxRectangle width="30" height="39" as="alternateBounds" />
          </mxGeometry>
        </mxCell>
        <mxCell id="K0FyJU6ovmfU7ALh6ZUN-4" value="&lt;span style=&quot;background-color: rgb(224, 224, 224);&quot;&gt;customer_key&lt;/span&gt;" style="shape=partialRectangle;connectable=0;fillColor=none;top=0;left=0;bottom=0;right=0;align=left;spacingLeft=6;fontStyle=5;overflow=hidden;whiteSpace=wrap;html=1;rounded=1;fontSize=16;" vertex="1" parent="K0FyJU6ovmfU7ALh6ZUN-2">
          <mxGeometry x="30" width="220" height="39" as="geometry">
            <mxRectangle width="220" height="39" as="alternateBounds" />
          </mxGeometry>
        </mxCell>
        <mxCell id="K0FyJU6ovmfU7ALh6ZUN-5" value="" style="shape=tableRow;horizontal=0;startSize=0;swimlaneHead=0;swimlaneBody=0;fillColor=none;collapsible=0;dropTarget=0;points=[[0,0.5],[1,0.5]];portConstraint=eastwest;top=0;left=0;right=0;bottom=0;rounded=1;fontStyle=1;fontSize=16;" vertex="1" parent="K0FyJU6ovmfU7ALh6ZUN-1">
          <mxGeometry y="79" width="250" height="39" as="geometry" />
        </mxCell>
        <mxCell id="K0FyJU6ovmfU7ALh6ZUN-6" value="" style="shape=partialRectangle;connectable=0;fillColor=none;top=0;left=0;bottom=0;right=0;editable=1;overflow=hidden;whiteSpace=wrap;html=1;rounded=1;fontStyle=1;fontSize=16;" vertex="1" parent="K0FyJU6ovmfU7ALh6ZUN-5">
          <mxGeometry width="30" height="39" as="geometry">
            <mxRectangle width="30" height="39" as="alternateBounds" />
          </mxGeometry>
        </mxCell>
        <mxCell id="K0FyJU6ovmfU7ALh6ZUN-7" value="customer_id" style="shape=partialRectangle;connectable=0;fillColor=none;top=0;left=0;bottom=0;right=0;align=left;spacingLeft=6;overflow=hidden;whiteSpace=wrap;html=1;rounded=1;fontStyle=1;fontSize=16;" vertex="1" parent="K0FyJU6ovmfU7ALh6ZUN-5">
          <mxGeometry x="30" width="220" height="39" as="geometry">
            <mxRectangle width="220" height="39" as="alternateBounds" />
          </mxGeometry>
        </mxCell>
        <mxCell id="K0FyJU6ovmfU7ALh6ZUN-8" value="" style="shape=tableRow;horizontal=0;startSize=0;swimlaneHead=0;swimlaneBody=0;fillColor=none;collapsible=0;dropTarget=0;points=[[0,0.5],[1,0.5]];portConstraint=eastwest;top=0;left=0;right=0;bottom=0;rounded=1;fontStyle=1;fontSize=16;" vertex="1" parent="K0FyJU6ovmfU7ALh6ZUN-1">
          <mxGeometry y="118" width="250" height="39" as="geometry" />
        </mxCell>
        <mxCell id="K0FyJU6ovmfU7ALh6ZUN-9" value="" style="shape=partialRectangle;connectable=0;fillColor=none;top=0;left=0;bottom=0;right=0;editable=1;overflow=hidden;whiteSpace=wrap;html=1;rounded=1;fontStyle=1;fontSize=16;" vertex="1" parent="K0FyJU6ovmfU7ALh6ZUN-8">
          <mxGeometry width="30" height="39" as="geometry">
            <mxRectangle width="30" height="39" as="alternateBounds" />
          </mxGeometry>
        </mxCell>
        <mxCell id="K0FyJU6ovmfU7ALh6ZUN-10" value="customer_number" style="shape=partialRectangle;connectable=0;fillColor=none;top=0;left=0;bottom=0;right=0;align=left;spacingLeft=6;overflow=hidden;whiteSpace=wrap;html=1;rounded=1;fontStyle=1;fontSize=16;" vertex="1" parent="K0FyJU6ovmfU7ALh6ZUN-8">
          <mxGeometry x="30" width="220" height="39" as="geometry">
            <mxRectangle width="220" height="39" as="alternateBounds" />
          </mxGeometry>
        </mxCell>
        <mxCell id="K0FyJU6ovmfU7ALh6ZUN-11" value="" style="shape=tableRow;horizontal=0;startSize=0;swimlaneHead=0;swimlaneBody=0;fillColor=none;collapsible=0;dropTarget=0;points=[[0,0.5],[1,0.5]];portConstraint=eastwest;top=0;left=0;right=0;bottom=0;rounded=1;fontStyle=1;fontSize=16;" vertex="1" parent="K0FyJU6ovmfU7ALh6ZUN-1">
          <mxGeometry y="157" width="250" height="39" as="geometry" />
        </mxCell>
        <mxCell id="K0FyJU6ovmfU7ALh6ZUN-12" value="" style="shape=partialRectangle;connectable=0;fillColor=none;top=0;left=0;bottom=0;right=0;editable=1;overflow=hidden;whiteSpace=wrap;html=1;rounded=1;fontStyle=1;fontSize=16;" vertex="1" parent="K0FyJU6ovmfU7ALh6ZUN-11">
          <mxGeometry width="30" height="39" as="geometry">
            <mxRectangle width="30" height="39" as="alternateBounds" />
          </mxGeometry>
        </mxCell>
        <mxCell id="K0FyJU6ovmfU7ALh6ZUN-13" value="first_name" style="shape=partialRectangle;connectable=0;fillColor=none;top=0;left=0;bottom=0;right=0;align=left;spacingLeft=6;overflow=hidden;whiteSpace=wrap;html=1;rounded=1;fontStyle=1;fontSize=16;" vertex="1" parent="K0FyJU6ovmfU7ALh6ZUN-11">
          <mxGeometry x="30" width="220" height="39" as="geometry">
            <mxRectangle width="220" height="39" as="alternateBounds" />
          </mxGeometry>
        </mxCell>
        <mxCell id="K0FyJU6ovmfU7ALh6ZUN-14" value="" style="shape=tableRow;horizontal=0;startSize=0;swimlaneHead=0;swimlaneBody=0;fillColor=none;collapsible=0;dropTarget=0;points=[[0,0.5],[1,0.5]];portConstraint=eastwest;top=0;left=0;right=0;bottom=0;rounded=1;fontStyle=1;fontSize=16;" vertex="1" parent="K0FyJU6ovmfU7ALh6ZUN-1">
          <mxGeometry y="196" width="250" height="39" as="geometry" />
        </mxCell>
        <mxCell id="K0FyJU6ovmfU7ALh6ZUN-15" value="" style="shape=partialRectangle;connectable=0;fillColor=none;top=0;left=0;bottom=0;right=0;editable=1;overflow=hidden;whiteSpace=wrap;html=1;rounded=1;fontStyle=1;fontSize=16;" vertex="1" parent="K0FyJU6ovmfU7ALh6ZUN-14">
          <mxGeometry width="30" height="39" as="geometry">
            <mxRectangle width="30" height="39" as="alternateBounds" />
          </mxGeometry>
        </mxCell>
        <mxCell id="K0FyJU6ovmfU7ALh6ZUN-16" value="last_name" style="shape=partialRectangle;connectable=0;fillColor=none;top=0;left=0;bottom=0;right=0;align=left;spacingLeft=6;overflow=hidden;whiteSpace=wrap;html=1;rounded=1;fontStyle=1;fontSize=16;" vertex="1" parent="K0FyJU6ovmfU7ALh6ZUN-14">
          <mxGeometry x="30" width="220" height="39" as="geometry">
            <mxRectangle width="220" height="39" as="alternateBounds" />
          </mxGeometry>
        </mxCell>
        <mxCell id="K0FyJU6ovmfU7ALh6ZUN-17" value="" style="shape=tableRow;horizontal=0;startSize=0;swimlaneHead=0;swimlaneBody=0;fillColor=none;collapsible=0;dropTarget=0;points=[[0,0.5],[1,0.5]];portConstraint=eastwest;top=0;left=0;right=0;bottom=0;rounded=1;fontStyle=1;fontSize=16;" vertex="1" parent="K0FyJU6ovmfU7ALh6ZUN-1">
          <mxGeometry y="235" width="250" height="39" as="geometry" />
        </mxCell>
        <mxCell id="K0FyJU6ovmfU7ALh6ZUN-18" value="" style="shape=partialRectangle;connectable=0;fillColor=none;top=0;left=0;bottom=0;right=0;editable=1;overflow=hidden;whiteSpace=wrap;html=1;rounded=1;fontStyle=1;fontSize=16;" vertex="1" parent="K0FyJU6ovmfU7ALh6ZUN-17">
          <mxGeometry width="30" height="39" as="geometry">
            <mxRectangle width="30" height="39" as="alternateBounds" />
          </mxGeometry>
        </mxCell>
        <mxCell id="K0FyJU6ovmfU7ALh6ZUN-19" value="country" style="shape=partialRectangle;connectable=0;fillColor=none;top=0;left=0;bottom=0;right=0;align=left;spacingLeft=6;overflow=hidden;whiteSpace=wrap;html=1;rounded=1;fontStyle=1;fontSize=16;" vertex="1" parent="K0FyJU6ovmfU7ALh6ZUN-17">
          <mxGeometry x="30" width="220" height="39" as="geometry">
            <mxRectangle width="220" height="39" as="alternateBounds" />
          </mxGeometry>
        </mxCell>
        <mxCell id="K0FyJU6ovmfU7ALh6ZUN-20" value="" style="shape=tableRow;horizontal=0;startSize=0;swimlaneHead=0;swimlaneBody=0;fillColor=none;collapsible=0;dropTarget=0;points=[[0,0.5],[1,0.5]];portConstraint=eastwest;top=0;left=0;right=0;bottom=0;rounded=1;fontStyle=1;fontSize=16;" vertex="1" parent="K0FyJU6ovmfU7ALh6ZUN-1">
          <mxGeometry y="274" width="250" height="39" as="geometry" />
        </mxCell>
        <mxCell id="K0FyJU6ovmfU7ALh6ZUN-21" value="" style="shape=partialRectangle;connectable=0;fillColor=none;top=0;left=0;bottom=0;right=0;editable=1;overflow=hidden;whiteSpace=wrap;html=1;rounded=1;fontStyle=1;fontSize=16;" vertex="1" parent="K0FyJU6ovmfU7ALh6ZUN-20">
          <mxGeometry width="30" height="39" as="geometry">
            <mxRectangle width="30" height="39" as="alternateBounds" />
          </mxGeometry>
        </mxCell>
        <mxCell id="K0FyJU6ovmfU7ALh6ZUN-22" value="marital_status" style="shape=partialRectangle;connectable=0;fillColor=none;top=0;left=0;bottom=0;right=0;align=left;spacingLeft=6;overflow=hidden;whiteSpace=wrap;html=1;rounded=1;fontStyle=1;fontSize=16;" vertex="1" parent="K0FyJU6ovmfU7ALh6ZUN-20">
          <mxGeometry x="30" width="220" height="39" as="geometry">
            <mxRectangle width="220" height="39" as="alternateBounds" />
          </mxGeometry>
        </mxCell>
        <mxCell id="K0FyJU6ovmfU7ALh6ZUN-23" value="" style="shape=tableRow;horizontal=0;startSize=0;swimlaneHead=0;swimlaneBody=0;fillColor=none;collapsible=0;dropTarget=0;points=[[0,0.5],[1,0.5]];portConstraint=eastwest;top=0;left=0;right=0;bottom=0;rounded=1;fontStyle=1;fontSize=16;" vertex="1" parent="K0FyJU6ovmfU7ALh6ZUN-1">
          <mxGeometry y="313" width="250" height="39" as="geometry" />
        </mxCell>
        <mxCell id="K0FyJU6ovmfU7ALh6ZUN-24" value="" style="shape=partialRectangle;connectable=0;fillColor=none;top=0;left=0;bottom=0;right=0;editable=1;overflow=hidden;whiteSpace=wrap;html=1;rounded=1;fontStyle=1;fontSize=16;" vertex="1" parent="K0FyJU6ovmfU7ALh6ZUN-23">
          <mxGeometry width="30" height="39" as="geometry">
            <mxRectangle width="30" height="39" as="alternateBounds" />
          </mxGeometry>
        </mxCell>
        <mxCell id="K0FyJU6ovmfU7ALh6ZUN-25" value="gender" style="shape=partialRectangle;connectable=0;fillColor=none;top=0;left=0;bottom=0;right=0;align=left;spacingLeft=6;overflow=hidden;whiteSpace=wrap;html=1;rounded=1;fontStyle=1;fontSize=16;" vertex="1" parent="K0FyJU6ovmfU7ALh6ZUN-23">
          <mxGeometry x="30" width="220" height="39" as="geometry">
            <mxRectangle width="220" height="39" as="alternateBounds" />
          </mxGeometry>
        </mxCell>
        <mxCell id="K0FyJU6ovmfU7ALh6ZUN-26" value="" style="shape=tableRow;horizontal=0;startSize=0;swimlaneHead=0;swimlaneBody=0;fillColor=none;collapsible=0;dropTarget=0;points=[[0,0.5],[1,0.5]];portConstraint=eastwest;top=0;left=0;right=0;bottom=0;rounded=1;fontStyle=1;fontSize=16;" vertex="1" parent="K0FyJU6ovmfU7ALh6ZUN-1">
          <mxGeometry y="352" width="250" height="39" as="geometry" />
        </mxCell>
        <mxCell id="K0FyJU6ovmfU7ALh6ZUN-27" value="" style="shape=partialRectangle;connectable=0;fillColor=none;top=0;left=0;bottom=0;right=0;editable=1;overflow=hidden;whiteSpace=wrap;html=1;rounded=1;fontStyle=1;fontSize=16;" vertex="1" parent="K0FyJU6ovmfU7ALh6ZUN-26">
          <mxGeometry width="30" height="39" as="geometry">
            <mxRectangle width="30" height="39" as="alternateBounds" />
          </mxGeometry>
        </mxCell>
        <mxCell id="K0FyJU6ovmfU7ALh6ZUN-28" value="birthdate" style="shape=partialRectangle;connectable=0;fillColor=none;top=0;left=0;bottom=0;right=0;align=left;spacingLeft=6;overflow=hidden;whiteSpace=wrap;html=1;rounded=1;fontStyle=1;fontSize=16;" vertex="1" parent="K0FyJU6ovmfU7ALh6ZUN-26">
          <mxGeometry x="30" width="220" height="39" as="geometry">
            <mxRectangle width="220" height="39" as="alternateBounds" />
          </mxGeometry>
        </mxCell>
        <mxCell id="K0FyJU6ovmfU7ALh6ZUN-29" value="" style="shape=tableRow;horizontal=0;startSize=0;swimlaneHead=0;swimlaneBody=0;fillColor=none;collapsible=0;dropTarget=0;points=[[0,0.5],[1,0.5]];portConstraint=eastwest;top=0;left=0;right=0;bottom=0;rounded=1;fontStyle=1;fontSize=16;" vertex="1" parent="K0FyJU6ovmfU7ALh6ZUN-1">
          <mxGeometry y="391" width="250" height="39" as="geometry" />
        </mxCell>
        <mxCell id="K0FyJU6ovmfU7ALh6ZUN-30" value="" style="shape=partialRectangle;connectable=0;fillColor=none;top=0;left=0;bottom=0;right=0;editable=1;overflow=hidden;whiteSpace=wrap;html=1;rounded=1;fontStyle=1;fontSize=16;" vertex="1" parent="K0FyJU6ovmfU7ALh6ZUN-29">
          <mxGeometry width="30" height="39" as="geometry">
            <mxRectangle width="30" height="39" as="alternateBounds" />
          </mxGeometry>
        </mxCell>
        <mxCell id="K0FyJU6ovmfU7ALh6ZUN-31" value="country" style="shape=partialRectangle;connectable=0;fillColor=none;top=0;left=0;bottom=0;right=0;align=left;spacingLeft=6;overflow=hidden;whiteSpace=wrap;html=1;rounded=1;fontStyle=1;fontSize=16;" vertex="1" parent="K0FyJU6ovmfU7ALh6ZUN-29">
          <mxGeometry x="30" width="220" height="39" as="geometry">
            <mxRectangle width="220" height="39" as="alternateBounds" />
          </mxGeometry>
        </mxCell>
        <mxCell id="K0FyJU6ovmfU7ALh6ZUN-32" value="&lt;b style=&quot;border-color: var(--border-color); font-size: 38px; text-align: left;&quot;&gt;Sales Data Mart&amp;nbsp;&lt;/b&gt;&lt;font style=&quot;border-color: var(--border-color); text-align: left; font-size: 30px;&quot;&gt;(Star Schema)&lt;/font&gt;" style="text;html=1;strokeColor=default;fillColor=none;align=center;verticalAlign=middle;whiteSpace=wrap;rounded=1;" vertex="1" parent="1">
          <mxGeometry x="120" y="110" width="570" height="50" as="geometry" />
        </mxCell>
        <mxCell id="K0FyJU6ovmfU7ALh6ZUN-33" value="&lt;font style=&quot;font-size: 18px;&quot;&gt;gold.fact_sales&lt;/font&gt;" style="shape=table;startSize=40;container=1;collapsible=1;childLayout=tableLayout;fixedRows=1;rowLines=0;fontStyle=1;align=center;resizeLast=1;html=1;rounded=1;fillColor=#dae8fc;strokeColor=#6c8ebf;" vertex="1" parent="1">
          <mxGeometry x="320" y="241" width="240" height="399" as="geometry" />
        </mxCell>
        <mxCell id="K0FyJU6ovmfU7ALh6ZUN-34" value="" style="shape=tableRow;horizontal=0;startSize=0;swimlaneHead=0;swimlaneBody=0;fillColor=none;collapsible=0;dropTarget=0;points=[[0,0.5],[1,0.5]];portConstraint=eastwest;top=0;left=0;right=0;bottom=0;rounded=1;fontStyle=1;fontSize=16;" vertex="1" parent="K0FyJU6ovmfU7ALh6ZUN-33">
          <mxGeometry y="40" width="240" height="39" as="geometry" />
        </mxCell>
        <mxCell id="K0FyJU6ovmfU7ALh6ZUN-35" value="" style="shape=partialRectangle;connectable=0;fillColor=none;top=0;left=0;bottom=0;right=0;editable=1;overflow=hidden;whiteSpace=wrap;html=1;rounded=1;fontStyle=1;fontSize=16;" vertex="1" parent="K0FyJU6ovmfU7ALh6ZUN-34">
          <mxGeometry width="40" height="39" as="geometry">
            <mxRectangle width="40" height="39" as="alternateBounds" />
          </mxGeometry>
        </mxCell>
        <mxCell id="K0FyJU6ovmfU7ALh6ZUN-36" value="order_number" style="shape=partialRectangle;connectable=0;fillColor=none;top=0;left=0;bottom=0;right=0;align=left;spacingLeft=6;overflow=hidden;whiteSpace=wrap;html=1;rounded=1;fontStyle=1;fontSize=16;" vertex="1" parent="K0FyJU6ovmfU7ALh6ZUN-34">
          <mxGeometry x="40" width="200" height="39" as="geometry">
            <mxRectangle width="200" height="39" as="alternateBounds" />
          </mxGeometry>
        </mxCell>
        <mxCell id="K0FyJU6ovmfU7ALh6ZUN-37" value="" style="shape=tableRow;horizontal=0;startSize=0;swimlaneHead=0;swimlaneBody=0;fillColor=none;collapsible=0;dropTarget=0;points=[[0,0.5],[1,0.5]];portConstraint=eastwest;top=0;left=0;right=0;bottom=0;rounded=1;fontStyle=1;fontSize=16;" vertex="1" parent="K0FyJU6ovmfU7ALh6ZUN-33">
          <mxGeometry y="79" width="240" height="39" as="geometry" />
        </mxCell>
        <mxCell id="K0FyJU6ovmfU7ALh6ZUN-38" value="FK1" style="shape=partialRectangle;connectable=0;fillColor=none;top=0;left=0;bottom=0;right=0;editable=1;overflow=hidden;whiteSpace=wrap;html=1;rounded=1;fontStyle=1;fontSize=16;" vertex="1" parent="K0FyJU6ovmfU7ALh6ZUN-37">
          <mxGeometry width="40" height="39" as="geometry">
            <mxRectangle width="40" height="39" as="alternateBounds" />
          </mxGeometry>
        </mxCell>
        <mxCell id="K0FyJU6ovmfU7ALh6ZUN-39" value="&lt;span style=&quot;background-color: rgb(207, 207, 207);&quot;&gt;product_key&lt;/span&gt;" style="shape=partialRectangle;connectable=0;fillColor=none;top=0;left=0;bottom=0;right=0;align=left;spacingLeft=6;overflow=hidden;whiteSpace=wrap;html=1;rounded=1;fontStyle=1;fontSize=16;" vertex="1" parent="K0FyJU6ovmfU7ALh6ZUN-37">
          <mxGeometry x="40" width="200" height="39" as="geometry">
            <mxRectangle width="200" height="39" as="alternateBounds" />
          </mxGeometry>
        </mxCell>
        <mxCell id="K0FyJU6ovmfU7ALh6ZUN-40" value="" style="shape=tableRow;horizontal=0;startSize=0;swimlaneHead=0;swimlaneBody=0;fillColor=none;collapsible=0;dropTarget=0;points=[[0,0.5],[1,0.5]];portConstraint=eastwest;top=0;left=0;right=0;bottom=0;rounded=1;fontStyle=1;fontSize=16;" vertex="1" parent="K0FyJU6ovmfU7ALh6ZUN-33">
          <mxGeometry y="118" width="240" height="39" as="geometry" />
        </mxCell>
        <mxCell id="K0FyJU6ovmfU7ALh6ZUN-41" value="FK2" style="shape=partialRectangle;connectable=0;fillColor=none;top=0;left=0;bottom=0;right=0;editable=1;overflow=hidden;whiteSpace=wrap;html=1;rounded=1;fontStyle=1;fontSize=16;" vertex="1" parent="K0FyJU6ovmfU7ALh6ZUN-40">
          <mxGeometry width="40" height="39" as="geometry">
            <mxRectangle width="40" height="39" as="alternateBounds" />
          </mxGeometry>
        </mxCell>
        <mxCell id="K0FyJU6ovmfU7ALh6ZUN-42" value="&lt;span style=&quot;background-color: rgb(207, 207, 207);&quot;&gt;customer_key&lt;/span&gt;" style="shape=partialRectangle;connectable=0;fillColor=none;top=0;left=0;bottom=0;right=0;align=left;spacingLeft=6;overflow=hidden;whiteSpace=wrap;html=1;rounded=1;fontStyle=1;fontSize=16;" vertex="1" parent="K0FyJU6ovmfU7ALh6ZUN-40">
          <mxGeometry x="40" width="200" height="39" as="geometry">
            <mxRectangle width="200" height="39" as="alternateBounds" />
          </mxGeometry>
        </mxCell>
        <mxCell id="K0FyJU6ovmfU7ALh6ZUN-43" value="" style="shape=tableRow;horizontal=0;startSize=0;swimlaneHead=0;swimlaneBody=0;fillColor=none;collapsible=0;dropTarget=0;points=[[0,0.5],[1,0.5]];portConstraint=eastwest;top=0;left=0;right=0;bottom=0;rounded=1;fontStyle=1;fontSize=16;" vertex="1" parent="K0FyJU6ovmfU7ALh6ZUN-33">
          <mxGeometry y="157" width="240" height="39" as="geometry" />
        </mxCell>
        <mxCell id="K0FyJU6ovmfU7ALh6ZUN-44" value="" style="shape=partialRectangle;connectable=0;fillColor=none;top=0;left=0;bottom=0;right=0;editable=1;overflow=hidden;whiteSpace=wrap;html=1;rounded=1;fontStyle=1;fontSize=16;" vertex="1" parent="K0FyJU6ovmfU7ALh6ZUN-43">
          <mxGeometry width="40" height="39" as="geometry">
            <mxRectangle width="40" height="39" as="alternateBounds" />
          </mxGeometry>
        </mxCell>
        <mxCell id="K0FyJU6ovmfU7ALh6ZUN-45" value="order_date" style="shape=partialRectangle;connectable=0;fillColor=none;top=0;left=0;bottom=0;right=0;align=left;spacingLeft=6;overflow=hidden;whiteSpace=wrap;html=1;rounded=1;fontStyle=1;fontSize=16;" vertex="1" parent="K0FyJU6ovmfU7ALh6ZUN-43">
          <mxGeometry x="40" width="200" height="39" as="geometry">
            <mxRectangle width="200" height="39" as="alternateBounds" />
          </mxGeometry>
        </mxCell>
        <mxCell id="K0FyJU6ovmfU7ALh6ZUN-46" value="" style="shape=tableRow;horizontal=0;startSize=0;swimlaneHead=0;swimlaneBody=0;fillColor=none;collapsible=0;dropTarget=0;points=[[0,0.5],[1,0.5]];portConstraint=eastwest;top=0;left=0;right=0;bottom=0;rounded=1;fontStyle=1;fontSize=16;" vertex="1" parent="K0FyJU6ovmfU7ALh6ZUN-33">
          <mxGeometry y="196" width="240" height="39" as="geometry" />
        </mxCell>
        <mxCell id="K0FyJU6ovmfU7ALh6ZUN-47" value="" style="shape=partialRectangle;connectable=0;fillColor=none;top=0;left=0;bottom=0;right=0;editable=1;overflow=hidden;whiteSpace=wrap;html=1;rounded=1;fontStyle=1;fontSize=16;" vertex="1" parent="K0FyJU6ovmfU7ALh6ZUN-46">
          <mxGeometry width="40" height="39" as="geometry">
            <mxRectangle width="40" height="39" as="alternateBounds" />
          </mxGeometry>
        </mxCell>
        <mxCell id="K0FyJU6ovmfU7ALh6ZUN-48" value="shipping_date" style="shape=partialRectangle;connectable=0;fillColor=none;top=0;left=0;bottom=0;right=0;align=left;spacingLeft=6;overflow=hidden;whiteSpace=wrap;html=1;rounded=1;fontStyle=1;fontSize=16;" vertex="1" parent="K0FyJU6ovmfU7ALh6ZUN-46">
          <mxGeometry x="40" width="200" height="39" as="geometry">
            <mxRectangle width="200" height="39" as="alternateBounds" />
          </mxGeometry>
        </mxCell>
        <mxCell id="K0FyJU6ovmfU7ALh6ZUN-49" value="" style="shape=tableRow;horizontal=0;startSize=0;swimlaneHead=0;swimlaneBody=0;fillColor=none;collapsible=0;dropTarget=0;points=[[0,0.5],[1,0.5]];portConstraint=eastwest;top=0;left=0;right=0;bottom=0;rounded=1;fontStyle=1;fontSize=16;" vertex="1" parent="K0FyJU6ovmfU7ALh6ZUN-33">
          <mxGeometry y="235" width="240" height="39" as="geometry" />
        </mxCell>
        <mxCell id="K0FyJU6ovmfU7ALh6ZUN-50" value="" style="shape=partialRectangle;connectable=0;fillColor=none;top=0;left=0;bottom=0;right=0;editable=1;overflow=hidden;whiteSpace=wrap;html=1;rounded=1;fontStyle=1;fontSize=16;" vertex="1" parent="K0FyJU6ovmfU7ALh6ZUN-49">
          <mxGeometry width="40" height="39" as="geometry">
            <mxRectangle width="40" height="39" as="alternateBounds" />
          </mxGeometry>
        </mxCell>
        <mxCell id="K0FyJU6ovmfU7ALh6ZUN-51" value="due_date" style="shape=partialRectangle;connectable=0;fillColor=none;top=0;left=0;bottom=0;right=0;align=left;spacingLeft=6;overflow=hidden;whiteSpace=wrap;html=1;rounded=1;fontStyle=1;fontSize=16;" vertex="1" parent="K0FyJU6ovmfU7ALh6ZUN-49">
          <mxGeometry x="40" width="200" height="39" as="geometry">
            <mxRectangle width="200" height="39" as="alternateBounds" />
          </mxGeometry>
        </mxCell>
        <mxCell id="K0FyJU6ovmfU7ALh6ZUN-52" value="" style="shape=tableRow;horizontal=0;startSize=0;swimlaneHead=0;swimlaneBody=0;fillColor=none;collapsible=0;dropTarget=0;points=[[0,0.5],[1,0.5]];portConstraint=eastwest;top=0;left=0;right=0;bottom=0;rounded=1;fontStyle=1;fontSize=16;" vertex="1" parent="K0FyJU6ovmfU7ALh6ZUN-33">
          <mxGeometry y="274" width="240" height="39" as="geometry" />
        </mxCell>
        <mxCell id="K0FyJU6ovmfU7ALh6ZUN-53" value="" style="shape=partialRectangle;connectable=0;fillColor=none;top=0;left=0;bottom=0;right=0;editable=1;overflow=hidden;whiteSpace=wrap;html=1;rounded=1;fontStyle=1;fontSize=16;" vertex="1" parent="K0FyJU6ovmfU7ALh6ZUN-52">
          <mxGeometry width="40" height="39" as="geometry">
            <mxRectangle width="40" height="39" as="alternateBounds" />
          </mxGeometry>
        </mxCell>
        <mxCell id="K0FyJU6ovmfU7ALh6ZUN-54" value="sales_amount" style="shape=partialRectangle;connectable=0;fillColor=none;top=0;left=0;bottom=0;right=0;align=left;spacingLeft=6;overflow=hidden;whiteSpace=wrap;html=1;rounded=1;fontStyle=1;fontSize=16;" vertex="1" parent="K0FyJU6ovmfU7ALh6ZUN-52">
          <mxGeometry x="40" width="200" height="39" as="geometry">
            <mxRectangle width="200" height="39" as="alternateBounds" />
          </mxGeometry>
        </mxCell>
        <mxCell id="K0FyJU6ovmfU7ALh6ZUN-55" value="" style="shape=tableRow;horizontal=0;startSize=0;swimlaneHead=0;swimlaneBody=0;fillColor=none;collapsible=0;dropTarget=0;points=[[0,0.5],[1,0.5]];portConstraint=eastwest;top=0;left=0;right=0;bottom=0;rounded=1;fontStyle=1;fontSize=16;" vertex="1" parent="K0FyJU6ovmfU7ALh6ZUN-33">
          <mxGeometry y="313" width="240" height="39" as="geometry" />
        </mxCell>
        <mxCell id="K0FyJU6ovmfU7ALh6ZUN-56" value="" style="shape=partialRectangle;connectable=0;fillColor=none;top=0;left=0;bottom=0;right=0;editable=1;overflow=hidden;whiteSpace=wrap;html=1;rounded=1;fontStyle=1;fontSize=16;" vertex="1" parent="K0FyJU6ovmfU7ALh6ZUN-55">
          <mxGeometry width="40" height="39" as="geometry">
            <mxRectangle width="40" height="39" as="alternateBounds" />
          </mxGeometry>
        </mxCell>
        <mxCell id="K0FyJU6ovmfU7ALh6ZUN-57" value="quantity" style="shape=partialRectangle;connectable=0;fillColor=none;top=0;left=0;bottom=0;right=0;align=left;spacingLeft=6;overflow=hidden;whiteSpace=wrap;html=1;rounded=1;fontStyle=1;fontSize=16;" vertex="1" parent="K0FyJU6ovmfU7ALh6ZUN-55">
          <mxGeometry x="40" width="200" height="39" as="geometry">
            <mxRectangle width="200" height="39" as="alternateBounds" />
          </mxGeometry>
        </mxCell>
        <mxCell id="K0FyJU6ovmfU7ALh6ZUN-58" value="" style="shape=tableRow;horizontal=0;startSize=0;swimlaneHead=0;swimlaneBody=0;fillColor=none;collapsible=0;dropTarget=0;points=[[0,0.5],[1,0.5]];portConstraint=eastwest;top=0;left=0;right=0;bottom=0;rounded=1;fontStyle=1;fontSize=16;" vertex="1" parent="K0FyJU6ovmfU7ALh6ZUN-33">
          <mxGeometry y="352" width="240" height="39" as="geometry" />
        </mxCell>
        <mxCell id="K0FyJU6ovmfU7ALh6ZUN-59" value="" style="shape=partialRectangle;connectable=0;fillColor=none;top=0;left=0;bottom=0;right=0;editable=1;overflow=hidden;whiteSpace=wrap;html=1;rounded=1;fontStyle=1;fontSize=16;" vertex="1" parent="K0FyJU6ovmfU7ALh6ZUN-58">
          <mxGeometry width="40" height="39" as="geometry">
            <mxRectangle width="40" height="39" as="alternateBounds" />
          </mxGeometry>
        </mxCell>
        <mxCell id="K0FyJU6ovmfU7ALh6ZUN-60" value="price" style="shape=partialRectangle;connectable=0;fillColor=none;top=0;left=0;bottom=0;right=0;align=left;spacingLeft=6;overflow=hidden;whiteSpace=wrap;html=1;rounded=1;fontStyle=1;fontSize=16;" vertex="1" parent="K0FyJU6ovmfU7ALh6ZUN-58">
          <mxGeometry x="40" width="200" height="39" as="geometry">
            <mxRectangle width="200" height="39" as="alternateBounds" />
          </mxGeometry>
        </mxCell>
        <mxCell id="K0FyJU6ovmfU7ALh6ZUN-61" value="&lt;font style=&quot;font-size: 18px;&quot;&gt;gold.dim_products&lt;/font&gt;" style="shape=table;startSize=40;container=1;collapsible=1;childLayout=tableLayout;fixedRows=1;rowLines=0;fontStyle=1;align=center;resizeLast=1;html=1;rounded=1;fillColor=#fff2cc;strokeColor=#d6b656;" vertex="1" parent="1">
          <mxGeometry x="720" y="241" width="250" height="479" as="geometry" />
        </mxCell>
        <mxCell id="K0FyJU6ovmfU7ALh6ZUN-62" value="" style="shape=tableRow;horizontal=0;startSize=0;swimlaneHead=0;swimlaneBody=0;fillColor=none;collapsible=0;dropTarget=0;points=[[0,0.5],[1,0.5]];portConstraint=eastwest;top=0;left=0;right=0;bottom=1;rounded=1;fontStyle=1;fontSize=16;" vertex="1" parent="K0FyJU6ovmfU7ALh6ZUN-61">
          <mxGeometry y="40" width="250" height="39" as="geometry" />
        </mxCell>
        <mxCell id="K0FyJU6ovmfU7ALh6ZUN-63" value="PK" style="shape=partialRectangle;connectable=0;fillColor=none;top=0;left=0;bottom=0;right=0;fontStyle=1;overflow=hidden;whiteSpace=wrap;html=1;rounded=1;fontSize=16;" vertex="1" parent="K0FyJU6ovmfU7ALh6ZUN-62">
          <mxGeometry width="30" height="39" as="geometry">
            <mxRectangle width="30" height="39" as="alternateBounds" />
          </mxGeometry>
        </mxCell>
        <mxCell id="K0FyJU6ovmfU7ALh6ZUN-64" value="&lt;span style=&quot;background-color: rgb(224, 224, 224);&quot;&gt;product_key&lt;/span&gt;" style="shape=partialRectangle;connectable=0;fillColor=none;top=0;left=0;bottom=0;right=0;align=left;spacingLeft=6;fontStyle=5;overflow=hidden;whiteSpace=wrap;html=1;rounded=1;fontSize=16;" vertex="1" parent="K0FyJU6ovmfU7ALh6ZUN-62">
          <mxGeometry x="30" width="220" height="39" as="geometry">
            <mxRectangle width="220" height="39" as="alternateBounds" />
          </mxGeometry>
        </mxCell>
        <mxCell id="K0FyJU6ovmfU7ALh6ZUN-65" value="" style="shape=tableRow;horizontal=0;startSize=0;swimlaneHead=0;swimlaneBody=0;fillColor=none;collapsible=0;dropTarget=0;points=[[0,0.5],[1,0.5]];portConstraint=eastwest;top=0;left=0;right=0;bottom=0;rounded=1;fontStyle=1;fontSize=16;" vertex="1" parent="K0FyJU6ovmfU7ALh6ZUN-61">
          <mxGeometry y="79" width="250" height="39" as="geometry" />
        </mxCell>
        <mxCell id="K0FyJU6ovmfU7ALh6ZUN-66" value="" style="shape=partialRectangle;connectable=0;fillColor=none;top=0;left=0;bottom=0;right=0;editable=1;overflow=hidden;whiteSpace=wrap;html=1;rounded=1;fontStyle=1;fontSize=16;" vertex="1" parent="K0FyJU6ovmfU7ALh6ZUN-65">
          <mxGeometry width="30" height="39" as="geometry">
            <mxRectangle width="30" height="39" as="alternateBounds" />
          </mxGeometry>
        </mxCell>
        <mxCell id="K0FyJU6ovmfU7ALh6ZUN-67" value="product_id" style="shape=partialRectangle;connectable=0;fillColor=none;top=0;left=0;bottom=0;right=0;align=left;spacingLeft=6;overflow=hidden;whiteSpace=wrap;html=1;rounded=1;fontStyle=1;fontSize=16;" vertex="1" parent="K0FyJU6ovmfU7ALh6ZUN-65">
          <mxGeometry x="30" width="220" height="39" as="geometry">
            <mxRectangle width="220" height="39" as="alternateBounds" />
          </mxGeometry>
        </mxCell>
        <mxCell id="K0FyJU6ovmfU7ALh6ZUN-68" value="" style="shape=tableRow;horizontal=0;startSize=0;swimlaneHead=0;swimlaneBody=0;fillColor=none;collapsible=0;dropTarget=0;points=[[0,0.5],[1,0.5]];portConstraint=eastwest;top=0;left=0;right=0;bottom=0;rounded=1;fontStyle=1;fontSize=16;" vertex="1" parent="K0FyJU6ovmfU7ALh6ZUN-61">
          <mxGeometry y="118" width="250" height="39" as="geometry" />
        </mxCell>
        <mxCell id="K0FyJU6ovmfU7ALh6ZUN-69" value="" style="shape=partialRectangle;connectable=0;fillColor=none;top=0;left=0;bottom=0;right=0;editable=1;overflow=hidden;whiteSpace=wrap;html=1;rounded=1;fontStyle=1;fontSize=16;" vertex="1" parent="K0FyJU6ovmfU7ALh6ZUN-68">
          <mxGeometry width="30" height="39" as="geometry">
            <mxRectangle width="30" height="39" as="alternateBounds" />
          </mxGeometry>
        </mxCell>
        <mxCell id="K0FyJU6ovmfU7ALh6ZUN-70" value="product_number" style="shape=partialRectangle;connectable=0;fillColor=none;top=0;left=0;bottom=0;right=0;align=left;spacingLeft=6;overflow=hidden;whiteSpace=wrap;html=1;rounded=1;fontStyle=1;fontSize=16;" vertex="1" parent="K0FyJU6ovmfU7ALh6ZUN-68">
          <mxGeometry x="30" width="220" height="39" as="geometry">
            <mxRectangle width="220" height="39" as="alternateBounds" />
          </mxGeometry>
        </mxCell>
        <mxCell id="K0FyJU6ovmfU7ALh6ZUN-71" value="" style="shape=tableRow;horizontal=0;startSize=0;swimlaneHead=0;swimlaneBody=0;fillColor=none;collapsible=0;dropTarget=0;points=[[0,0.5],[1,0.5]];portConstraint=eastwest;top=0;left=0;right=0;bottom=0;rounded=1;fontStyle=1;fontSize=16;" vertex="1" parent="K0FyJU6ovmfU7ALh6ZUN-61">
          <mxGeometry y="157" width="250" height="39" as="geometry" />
        </mxCell>
        <mxCell id="K0FyJU6ovmfU7ALh6ZUN-72" value="" style="shape=partialRectangle;connectable=0;fillColor=none;top=0;left=0;bottom=0;right=0;editable=1;overflow=hidden;whiteSpace=wrap;html=1;rounded=1;fontStyle=1;fontSize=16;" vertex="1" parent="K0FyJU6ovmfU7ALh6ZUN-71">
          <mxGeometry width="30" height="39" as="geometry">
            <mxRectangle width="30" height="39" as="alternateBounds" />
          </mxGeometry>
        </mxCell>
        <mxCell id="K0FyJU6ovmfU7ALh6ZUN-73" value="product_name" style="shape=partialRectangle;connectable=0;fillColor=none;top=0;left=0;bottom=0;right=0;align=left;spacingLeft=6;overflow=hidden;whiteSpace=wrap;html=1;rounded=1;fontStyle=1;fontSize=16;" vertex="1" parent="K0FyJU6ovmfU7ALh6ZUN-71">
          <mxGeometry x="30" width="220" height="39" as="geometry">
            <mxRectangle width="220" height="39" as="alternateBounds" />
          </mxGeometry>
        </mxCell>
        <mxCell id="K0FyJU6ovmfU7ALh6ZUN-74" value="" style="shape=tableRow;horizontal=0;startSize=0;swimlaneHead=0;swimlaneBody=0;fillColor=none;collapsible=0;dropTarget=0;points=[[0,0.5],[1,0.5]];portConstraint=eastwest;top=0;left=0;right=0;bottom=0;rounded=1;fontStyle=1;fontSize=16;" vertex="1" parent="K0FyJU6ovmfU7ALh6ZUN-61">
          <mxGeometry y="196" width="250" height="39" as="geometry" />
        </mxCell>
        <mxCell id="K0FyJU6ovmfU7ALh6ZUN-75" value="" style="shape=partialRectangle;connectable=0;fillColor=none;top=0;left=0;bottom=0;right=0;editable=1;overflow=hidden;whiteSpace=wrap;html=1;rounded=1;fontStyle=1;fontSize=16;" vertex="1" parent="K0FyJU6ovmfU7ALh6ZUN-74">
          <mxGeometry width="30" height="39" as="geometry">
            <mxRectangle width="30" height="39" as="alternateBounds" />
          </mxGeometry>
        </mxCell>
        <mxCell id="K0FyJU6ovmfU7ALh6ZUN-76" value="category_id" style="shape=partialRectangle;connectable=0;fillColor=none;top=0;left=0;bottom=0;right=0;align=left;spacingLeft=6;overflow=hidden;whiteSpace=wrap;html=1;rounded=1;fontStyle=1;fontSize=16;" vertex="1" parent="K0FyJU6ovmfU7ALh6ZUN-74">
          <mxGeometry x="30" width="220" height="39" as="geometry">
            <mxRectangle width="220" height="39" as="alternateBounds" />
          </mxGeometry>
        </mxCell>
        <mxCell id="K0FyJU6ovmfU7ALh6ZUN-77" value="" style="shape=tableRow;horizontal=0;startSize=0;swimlaneHead=0;swimlaneBody=0;fillColor=none;collapsible=0;dropTarget=0;points=[[0,0.5],[1,0.5]];portConstraint=eastwest;top=0;left=0;right=0;bottom=0;rounded=1;fontStyle=1;fontSize=16;" vertex="1" parent="K0FyJU6ovmfU7ALh6ZUN-61">
          <mxGeometry y="235" width="250" height="39" as="geometry" />
        </mxCell>
        <mxCell id="K0FyJU6ovmfU7ALh6ZUN-78" value="" style="shape=partialRectangle;connectable=0;fillColor=none;top=0;left=0;bottom=0;right=0;editable=1;overflow=hidden;whiteSpace=wrap;html=1;rounded=1;fontStyle=1;fontSize=16;" vertex="1" parent="K0FyJU6ovmfU7ALh6ZUN-77">
          <mxGeometry width="30" height="39" as="geometry">
            <mxRectangle width="30" height="39" as="alternateBounds" />
          </mxGeometry>
        </mxCell>
        <mxCell id="K0FyJU6ovmfU7ALh6ZUN-79" value="category" style="shape=partialRectangle;connectable=0;fillColor=none;top=0;left=0;bottom=0;right=0;align=left;spacingLeft=6;overflow=hidden;whiteSpace=wrap;html=1;rounded=1;fontStyle=1;fontSize=16;" vertex="1" parent="K0FyJU6ovmfU7ALh6ZUN-77">
          <mxGeometry x="30" width="220" height="39" as="geometry">
            <mxRectangle width="220" height="39" as="alternateBounds" />
          </mxGeometry>
        </mxCell>
        <mxCell id="K0FyJU6ovmfU7ALh6ZUN-80" value="" style="shape=tableRow;horizontal=0;startSize=0;swimlaneHead=0;swimlaneBody=0;fillColor=none;collapsible=0;dropTarget=0;points=[[0,0.5],[1,0.5]];portConstraint=eastwest;top=0;left=0;right=0;bottom=0;rounded=1;fontStyle=1;fontSize=16;" vertex="1" parent="K0FyJU6ovmfU7ALh6ZUN-61">
          <mxGeometry y="274" width="250" height="39" as="geometry" />
        </mxCell>
        <mxCell id="K0FyJU6ovmfU7ALh6ZUN-81" value="" style="shape=partialRectangle;connectable=0;fillColor=none;top=0;left=0;bottom=0;right=0;editable=1;overflow=hidden;whiteSpace=wrap;html=1;rounded=1;fontStyle=1;fontSize=16;" vertex="1" parent="K0FyJU6ovmfU7ALh6ZUN-80">
          <mxGeometry width="30" height="39" as="geometry">
            <mxRectangle width="30" height="39" as="alternateBounds" />
          </mxGeometry>
        </mxCell>
        <mxCell id="K0FyJU6ovmfU7ALh6ZUN-82" value="subcategory" style="shape=partialRectangle;connectable=0;fillColor=none;top=0;left=0;bottom=0;right=0;align=left;spacingLeft=6;overflow=hidden;whiteSpace=wrap;html=1;rounded=1;fontStyle=1;fontSize=16;" vertex="1" parent="K0FyJU6ovmfU7ALh6ZUN-80">
          <mxGeometry x="30" width="220" height="39" as="geometry">
            <mxRectangle width="220" height="39" as="alternateBounds" />
          </mxGeometry>
        </mxCell>
        <mxCell id="K0FyJU6ovmfU7ALh6ZUN-83" value="" style="shape=tableRow;horizontal=0;startSize=0;swimlaneHead=0;swimlaneBody=0;fillColor=none;collapsible=0;dropTarget=0;points=[[0,0.5],[1,0.5]];portConstraint=eastwest;top=0;left=0;right=0;bottom=0;rounded=1;fontStyle=1;fontSize=16;" vertex="1" parent="K0FyJU6ovmfU7ALh6ZUN-61">
          <mxGeometry y="313" width="250" height="39" as="geometry" />
        </mxCell>
        <mxCell id="K0FyJU6ovmfU7ALh6ZUN-84" value="" style="shape=partialRectangle;connectable=0;fillColor=none;top=0;left=0;bottom=0;right=0;editable=1;overflow=hidden;whiteSpace=wrap;html=1;rounded=1;fontStyle=1;fontSize=16;" vertex="1" parent="K0FyJU6ovmfU7ALh6ZUN-83">
          <mxGeometry width="30" height="39" as="geometry">
            <mxRectangle width="30" height="39" as="alternateBounds" />
          </mxGeometry>
        </mxCell>
        <mxCell id="K0FyJU6ovmfU7ALh6ZUN-85" value="maintenance" style="shape=partialRectangle;connectable=0;fillColor=none;top=0;left=0;bottom=0;right=0;align=left;spacingLeft=6;overflow=hidden;whiteSpace=wrap;html=1;rounded=1;fontStyle=1;fontSize=16;" vertex="1" parent="K0FyJU6ovmfU7ALh6ZUN-83">
          <mxGeometry x="30" width="220" height="39" as="geometry">
            <mxRectangle width="220" height="39" as="alternateBounds" />
          </mxGeometry>
        </mxCell>
        <mxCell id="K0FyJU6ovmfU7ALh6ZUN-86" value="" style="shape=tableRow;horizontal=0;startSize=0;swimlaneHead=0;swimlaneBody=0;fillColor=none;collapsible=0;dropTarget=0;points=[[0,0.5],[1,0.5]];portConstraint=eastwest;top=0;left=0;right=0;bottom=0;rounded=1;fontStyle=1;fontSize=16;" vertex="1" parent="K0FyJU6ovmfU7ALh6ZUN-61">
          <mxGeometry y="352" width="250" height="39" as="geometry" />
        </mxCell>
        <mxCell id="K0FyJU6ovmfU7ALh6ZUN-87" value="" style="shape=partialRectangle;connectable=0;fillColor=none;top=0;left=0;bottom=0;right=0;editable=1;overflow=hidden;whiteSpace=wrap;html=1;rounded=1;fontStyle=1;fontSize=16;" vertex="1" parent="K0FyJU6ovmfU7ALh6ZUN-86">
          <mxGeometry width="30" height="39" as="geometry">
            <mxRectangle width="30" height="39" as="alternateBounds" />
          </mxGeometry>
        </mxCell>
        <mxCell id="K0FyJU6ovmfU7ALh6ZUN-88" value="cost" style="shape=partialRectangle;connectable=0;fillColor=none;top=0;left=0;bottom=0;right=0;align=left;spacingLeft=6;overflow=hidden;whiteSpace=wrap;html=1;rounded=1;fontStyle=1;fontSize=16;" vertex="1" parent="K0FyJU6ovmfU7ALh6ZUN-86">
          <mxGeometry x="30" width="220" height="39" as="geometry">
            <mxRectangle width="220" height="39" as="alternateBounds" />
          </mxGeometry>
        </mxCell>
        <mxCell id="K0FyJU6ovmfU7ALh6ZUN-89" value="" style="shape=tableRow;horizontal=0;startSize=0;swimlaneHead=0;swimlaneBody=0;fillColor=none;collapsible=0;dropTarget=0;points=[[0,0.5],[1,0.5]];portConstraint=eastwest;top=0;left=0;right=0;bottom=0;rounded=1;fontStyle=1;fontSize=16;" vertex="1" parent="K0FyJU6ovmfU7ALh6ZUN-61">
          <mxGeometry y="391" width="250" height="39" as="geometry" />
        </mxCell>
        <mxCell id="K0FyJU6ovmfU7ALh6ZUN-90" value="" style="shape=partialRectangle;connectable=0;fillColor=none;top=0;left=0;bottom=0;right=0;editable=1;overflow=hidden;whiteSpace=wrap;html=1;rounded=1;fontStyle=1;fontSize=16;" vertex="1" parent="K0FyJU6ovmfU7ALh6ZUN-89">
          <mxGeometry width="30" height="39" as="geometry">
            <mxRectangle width="30" height="39" as="alternateBounds" />
          </mxGeometry>
        </mxCell>
        <mxCell id="K0FyJU6ovmfU7ALh6ZUN-91" value="product_line" style="shape=partialRectangle;connectable=0;fillColor=none;top=0;left=0;bottom=0;right=0;align=left;spacingLeft=6;overflow=hidden;whiteSpace=wrap;html=1;rounded=1;fontStyle=1;fontSize=16;" vertex="1" parent="K0FyJU6ovmfU7ALh6ZUN-89">
          <mxGeometry x="30" width="220" height="39" as="geometry">
            <mxRectangle width="220" height="39" as="alternateBounds" />
          </mxGeometry>
        </mxCell>
        <mxCell id="K0FyJU6ovmfU7ALh6ZUN-92" value="" style="shape=tableRow;horizontal=0;startSize=0;swimlaneHead=0;swimlaneBody=0;fillColor=none;collapsible=0;dropTarget=0;points=[[0,0.5],[1,0.5]];portConstraint=eastwest;top=0;left=0;right=0;bottom=0;rounded=1;fontStyle=1;fontSize=16;" vertex="1" parent="K0FyJU6ovmfU7ALh6ZUN-61">
          <mxGeometry y="430" width="250" height="39" as="geometry" />
        </mxCell>
        <mxCell id="K0FyJU6ovmfU7ALh6ZUN-93" value="" style="shape=partialRectangle;connectable=0;fillColor=none;top=0;left=0;bottom=0;right=0;editable=1;overflow=hidden;whiteSpace=wrap;html=1;rounded=1;fontStyle=1;fontSize=16;" vertex="1" parent="K0FyJU6ovmfU7ALh6ZUN-92">
          <mxGeometry width="30" height="39" as="geometry">
            <mxRectangle width="30" height="39" as="alternateBounds" />
          </mxGeometry>
        </mxCell>
        <mxCell id="K0FyJU6ovmfU7ALh6ZUN-94" value="start_date" style="shape=partialRectangle;connectable=0;fillColor=none;top=0;left=0;bottom=0;right=0;align=left;spacingLeft=6;overflow=hidden;whiteSpace=wrap;html=1;rounded=1;fontStyle=1;fontSize=16;" vertex="1" parent="K0FyJU6ovmfU7ALh6ZUN-92">
          <mxGeometry x="30" width="220" height="39" as="geometry">
            <mxRectangle width="220" height="39" as="alternateBounds" />
          </mxGeometry>
        </mxCell>
        <mxCell id="K0FyJU6ovmfU7ALh6ZUN-95" value="" style="edgeStyle=entityRelationEdgeStyle;fontSize=12;html=1;endArrow=ERzeroToMany;startArrow=ERmandOne;rounded=0;exitX=1;exitY=0.5;exitDx=0;exitDy=0;entryX=0;entryY=0.5;entryDx=0;entryDy=0;" edge="1" parent="1">
          <mxGeometry width="100" height="100" relative="1" as="geometry">
            <mxPoint x="150" y="290" as="sourcePoint" />
            <mxPoint x="320" y="378" as="targetPoint" />
          </mxGeometry>
        </mxCell>
        <mxCell id="K0FyJU6ovmfU7ALh6ZUN-96" value="" style="edgeStyle=entityRelationEdgeStyle;fontSize=12;html=1;endArrow=ERzeroToMany;startArrow=ERmandOne;rounded=0;exitX=0;exitY=0.5;exitDx=0;exitDy=0;" edge="1" parent="1" source="K0FyJU6ovmfU7ALh6ZUN-62" target="K0FyJU6ovmfU7ALh6ZUN-37">
          <mxGeometry width="100" height="100" relative="1" as="geometry">
            <mxPoint x="690" y="310" as="sourcePoint" />
            <mxPoint x="510" y="349" as="targetPoint" />
          </mxGeometry>
        </mxCell>
        <mxCell id="K0FyJU6ovmfU7ALh6ZUN-97" value="&lt;u&gt;&lt;b style=&quot;font-size: 17px;&quot;&gt;marital_status&lt;/b&gt;&lt;br style=&quot;font-size: 17px;&quot;&gt;&lt;/u&gt;&lt;div style=&quot;font-size: 17px;&quot;&gt;&lt;span style=&quot;background-color: initial; font-size: 17px;&quot;&gt;- Married&lt;/span&gt;&lt;/div&gt;&lt;span style=&quot;background-color: initial; font-size: 17px;&quot;&gt;&lt;div style=&quot;font-size: 17px;&quot;&gt;&lt;span style=&quot;background-color: initial; font-size: 17px;&quot;&gt;- Single&lt;/span&gt;&lt;/div&gt;&lt;/span&gt;" style="text;html=1;strokeColor=none;fillColor=none;align=left;verticalAlign=middle;whiteSpace=wrap;rounded=0;fontSize=17;" vertex="1" parent="1">
          <mxGeometry x="-220" y="470" width="130" height="66" as="geometry" />
        </mxCell>
        <mxCell id="K0FyJU6ovmfU7ALh6ZUN-98" value="" style="endArrow=none;dashed=1;html=1;strokeWidth=1;rounded=0;entryX=1;entryY=0.25;entryDx=0;entryDy=0;" edge="1" parent="1">
          <mxGeometry width="50" height="50" relative="1" as="geometry">
            <mxPoint x="-60" y="533" as="sourcePoint" />
            <mxPoint x="-100" y="490" as="targetPoint" />
          </mxGeometry>
        </mxCell>
        <mxCell id="K0FyJU6ovmfU7ALh6ZUN-99" value="&lt;u&gt;&lt;b style=&quot;font-size: 17px;&quot;&gt;Sales Calculation&lt;br&gt;&lt;/b&gt;&lt;br style=&quot;font-size: 17px;&quot;&gt;&lt;/u&gt;&lt;div style=&quot;font-size: 17px;&quot;&gt;Sales = Quantity * price&lt;br&gt;&lt;/div&gt;" style="text;html=1;strokeColor=none;fillColor=none;align=left;verticalAlign=middle;whiteSpace=wrap;rounded=0;fontSize=17;" vertex="1" parent="1">
          <mxGeometry x="480" y="681" width="200" height="66" as="geometry" />
        </mxCell>
        <mxCell id="K0FyJU6ovmfU7ALh6ZUN-100" value="" style="endArrow=none;dashed=1;html=1;strokeWidth=1;rounded=0;exitX=0.25;exitY=0;exitDx=0;exitDy=0;" edge="1" parent="1">
          <mxGeometry width="50" height="50" relative="1" as="geometry">
            <mxPoint x="554" y="673" as="sourcePoint" />
            <mxPoint x="480" y="536" as="targetPoint" />
          </mxGeometry>
        </mxCell>
        <mxCell id="K0FyJU6ovmfU7ALh6ZUN-101" value="&lt;u&gt;&lt;b style=&quot;font-size: 17px;&quot;&gt;maintenance&lt;/b&gt;&lt;br style=&quot;font-size: 17px;&quot;&gt;&lt;/u&gt;&lt;div style=&quot;font-size: 17px;&quot;&gt;&lt;span style=&quot;background-color: initial; font-size: 17px;&quot;&gt;- Yes&lt;/span&gt;&lt;/div&gt;&lt;span style=&quot;background-color: initial; font-size: 17px;&quot;&gt;&lt;div style=&quot;font-size: 17px;&quot;&gt;&lt;span style=&quot;background-color: initial; font-size: 17px;&quot;&gt;-&amp;nbsp; No&lt;/span&gt;&lt;/div&gt;&lt;/span&gt;" style="text;html=1;strokeColor=none;fillColor=none;align=left;verticalAlign=middle;whiteSpace=wrap;rounded=0;fontSize=17;" vertex="1" parent="1">
          <mxGeometry x="1030" y="600" width="200" height="66" as="geometry" />
        </mxCell>
        <mxCell id="K0FyJU6ovmfU7ALh6ZUN-103" value="" style="endArrow=none;dashed=1;html=1;strokeWidth=1;rounded=0;entryX=0;entryY=0;entryDx=0;entryDy=0;" edge="1" parent="1" target="K0FyJU6ovmfU7ALh6ZUN-101">
          <mxGeometry width="50" height="50" relative="1" as="geometry">
            <mxPoint x="860" y="571" as="sourcePoint" />
            <mxPoint x="920" y="747" as="targetPoint" />
          </mxGeometry>
        </mxCell>
      </root>
    </mxGraphModel>
  </diagram>
</mxfile>
